<svg width="32" height="32" viewBox="0 0 32 32" fill="none" xmlns="http://www.w3.org/2000/svg"><path fill-rule="evenodd" clip-rule="evenodd" d="M16 28.8C19.3947 28.8 22.6505 27.4514 25.0509 25.051C27.4514 22.6505 28.7999 19.3948 28.7999 16C28.7999 12.6052 27.4514 9.34951 25.0509 6.94905C22.6505 4.54858 19.3947 3.20001 16 3.20001C12.6052 3.20001 9.34945 4.54858 6.94898 6.94905C4.54852 9.34951 3.19995 12.6052 3.19995 16C3.19995 19.3948 4.54852 22.6505 6.94898 25.051C9.34945 27.4514 12.6052 28.8 16 28.8ZM15.288 11.4688C15.047 11.308 14.7669 11.2157 14.4776 11.2017C14.1882 11.1876 13.9005 11.2524 13.6451 11.389C13.3897 11.5257 13.1762 11.7291 13.0274 11.9776C12.8785 12.2261 12.7999 12.5103 12.8 12.8V19.2C12.7999 19.4897 12.8785 19.7739 13.0274 20.0224C13.1762 20.2709 13.3897 20.4744 13.6451 20.611C13.9005 20.7477 14.1882 20.8124 14.4776 20.7984C14.7669 20.7843 15.047 20.692 15.288 20.5312L20.0879 17.3312C20.3071 17.1851 20.4868 16.9871 20.611 16.7549C20.7353 16.5227 20.8003 16.2634 20.8003 16C20.8003 15.7366 20.7353 15.4773 20.611 15.2451C20.4868 15.0129 20.3071 14.8149 20.0879 14.6688L15.288 11.4688Z" fill="currentColor"></path></svg>