<svg width="32" height="28" viewBox="0 0 32 28" fill="none" xmlns="http://www.w3.org/2000/svg"><path d="M15.6444 27.5C24.6774 27.5 32 26.2342 32 23.1991C32 20.164 24.6774 17.7035 15.6444 17.7035C15.6334 17.7035 15.6223 17.7035 15.6112 17.7036C16.8194 17.7303 19.5395 17.8236 20.7581 17.9826C20.2818 20.1747 19.6741 21.5265 19.6741 21.5265H11.4189C11.4189 21.5265 13.2575 20.8896 15.6107 17.7036C6.59504 17.7097 0 20.1678 0 23.1991C0 26.2342 6.61152 27.5 15.6444 27.5Z" fill="currentColor"></path><path d="M9.36196 4.26325C9.91502 1.87927 12.3215 0.5 14.4593 0.5C17.3037 0.5 19.2 2.88938 19.2 2.88938C19.2 2.88938 20.8593 0.5 24.1778 0.5C26.585 0.5 28.7784 2.4494 29.5203 4.1456C29.7141 4.58853 29.1604 4.97244 28.7584 4.70764C27.7842 4.06591 26.3809 3.36726 24.8889 3.36726C22.3537 3.36726 20.1482 4.80088 20.1482 4.80088C25.1019 4.80088 28.2074 6.37078 28.2074 10.5354C28.2074 11.969 27.9373 13.9025 27.3813 14.8827C27.1762 15.2444 26.6703 15.1294 26.5762 14.7238C26.0189 12.3229 24.1847 6.6745 19.2 6.23451C14.1346 6.99971 12.0904 11.9763 11.4189 14.2201C11.2978 14.6249 10.7791 14.705 10.6067 14.3196C10.2033 13.4175 9.71852 12.4196 9.71852 10.5354C9.71852 6.17291 14.5704 4.41634 17.7778 4.80088C17.7778 4.80088 15.9611 3.36726 13.9852 3.36726C12.4244 3.36726 10.9502 4.12462 10.0719 4.68589C9.73187 4.90321 9.27027 4.65845 9.36196 4.26325Z" fill="currentColor"></path><path d="M18.7074 7.30413C18.7074 7.30413 20.1593 7.50947 20.6833 7.56547C21.6983 11.6467 21.3195 15.3985 20.7581 17.9826C19.5394 17.8236 16.8187 17.7303 15.6107 17.7036C17.186 15.5707 18.5485 12.2954 18.7074 7.30413Z" fill="currentColor"></path></svg>
